<?xml version="1.0" standalone="no"?>
<!DOCTYPE svg PUBLIC "-//W3C//DTD SVG 20010904//EN"
 "http://www.w3.org/TR/2001/REC-SVG-20010904/DTD/svg10.dtd">
<svg version="1.0" xmlns="http://www.w3.org/2000/svg"
 width="1024.000000pt" height="1024.000000pt" viewBox="0 0 1024.000000 1024.000000"
 preserveAspectRatio="xMidYMid meet">

<g transform="translate(0.000000,1024.000000) scale(0.100000,-0.100000)"
fill="#000000" stroke="none">
<path d="M2375 6364 c-297 -43 -427 -90 -633 -226 -194 -130 -375 -332 -477
-537 -43 -86 -96 -245 -116 -346 -21 -105 -18 -426 4 -535 58 -280 175 -504
361 -693 321 -326 752 -470 1181 -397 288 49 503 158 723 365 141 133 256 300
331 479 79 190 107 352 98 576 -6 157 -22 243 -69 384 -154 463 -579 830
-1053 911 -92 16 -296 27 -350 19z m375 -38 c164 -35 338 -110 492 -212 95
-63 291 -258 355 -354 104 -156 182 -348 218 -535 25 -133 24 -360 -4 -492
-44 -212 -118 -375 -251 -554 -177 -239 -462 -437 -725 -502 -145 -37 -145
-37 -273 -46 -284 -22 -563 55 -816 223 -319 213 -528 544 -585 934 -14 92
-15 325 -2 417 42 291 192 576 408 774 84 77 246 192 330 235 113 56 267 102
438 130 62 10 341 -2 415 -18z"/>
<path d="M2285 6195 c-116 -22 -180 -42 -273 -85 -280 -131 -462 -308 -591
-575 -95 -194 -127 -358 -118 -600 8 -233 61 -408 179 -599 185 -298 488 -501
831 -556 88 -15 320 -9 407 10 286 61 545 221 704 435 192 257 267 472 267
766 0 75 -3 142 -5 150 -3 8 -7 31 -10 51 -60 415 -369 787 -781 941 -179 67
-440 93 -610 62z m465 -38 c139 -37 248 -82 344 -142 89 -56 217 -156 251
-196 11 -13 41 -49 66 -79 204 -243 301 -623 244 -956 -77 -449 -409 -824
-841 -949 -112 -33 -200 -44 -334 -44 -200 -1 -363 40 -532 131 -296 160 -511
438 -599 773 -22 82 -24 110 -23 300 0 194 3 218 27 308 120 449 479 788 924
872 120 23 351 14 473 -18z"/>
<path d="M2442 6036 c-17 -35 -42 -73 -57 -85 -56 -43 -138 -18 -189 59 -15
24 -34 40 -45 40 -19 0 -24 -12 -46 -128 -9 -47 -17 -62 -46 -87 -36 -30 -93
-33 -159 -10 -23 8 -51 15 -61 15 -27 0 -33 -37 -14 -89 20 -58 19 -86 -6
-138 -28 -57 -69 -70 -162 -48 -58 13 -97 13 -97 -2 0 -3 8 -33 17 -68 l17
-64 -31 -83 c-48 -127 -61 -180 -73 -293 -29 -265 51 -544 209 -732 114 -136
288 -255 456 -313 227 -78 524 -62 725 39 71 35 74 53 15 111 l-45 44 -72 -24
c-119 -38 -187 -49 -305 -50 -193 0 -354 46 -494 141 -217 148 -333 339 -369
604 -21 159 28 374 109 481 45 60 82 67 92 19 4 -16 7 -186 8 -376 1 -323 2
-352 22 -415 29 -95 52 -137 104 -188 51 -51 112 -89 187 -117 107 -39 116
-15 29 71 -111 109 -149 207 -158 412 -6 126 -6 126 20 152 22 22 35 26 85 26
94 0 153 -23 202 -78 24 -26 133 -141 244 -257 340 -358 430 -442 493 -463 95
-32 276 87 348 227 26 53 30 101 9 108 -7 2 -29 -13 -50 -33 -60 -56 -105 -83
-159 -94 -45 -8 -55 -7 -110 20 -50 24 -102 71 -300 270 -132 132 -239 244
-238 248 1 5 101 107 222 226 121 120 225 231 231 246 16 38 -3 72 -76 141
-74 71 -85 70 -99 -8 -7 -39 -22 -75 -40 -100 -43 -58 -306 -323 -337 -339
-28 -15 -93 -17 -168 -6 -74 11 -67 28 77 173 70 72 162 158 203 192 131 109
160 141 160 176 0 18 -6 34 -14 37 -8 3 -57 -1 -108 -10 -51 -9 -151 -22 -222
-30 -70 -8 -133 -19 -138 -24 -18 -18 2 -50 48 -77 37 -22 45 -31 42 -52 -2
-16 -60 -86 -163 -198 l-160 -172 -3 250 c-3 289 -3 288 88 348 248 162 607
141 892 -53 118 -79 239 -260 284 -423 25 -92 30 -285 10 -385 -18 -85 -34
-125 -86 -207 -46 -72 -34 -133 24 -133 49 0 123 88 158 188 29 81 49 105 128
146 38 20 70 43 70 51 0 8 -22 29 -49 46 -57 38 -81 81 -81 147 0 51 18 76 83
117 45 29 35 50 -35 77 -52 20 -67 31 -85 63 -32 56 -29 109 7 170 29 48 38
85 23 85 -5 0 -48 2 -97 3 -86 2 -89 3 -115 35 -41 48 -52 94 -40 159 16 86 3
98 -77 69 -22 -7 -60 -16 -86 -20 -42 -6 -49 -4 -80 23 -35 30 -68 117 -68
175 0 44 -20 39 -79 -17 -41 -39 -69 -58 -96 -63 -70 -13 -138 42 -171 140
-23 66 -44 62 -82 -18z m102 -157 c35 -33 29 -48 -17 -41 -37 5 -86 32 -58 32
6 0 11 11 11 25 0 23 2 25 22 14 12 -6 31 -20 42 -30z m-126 -19 c-7 -11 -14
-16 -16 -11 -2 6 -11 7 -20 4 -13 -4 -12 -2 3 10 30 24 49 22 33 -3z m23 -3
c-10 -9 -11 -8 -5 6 3 10 9 15 12 12 3 -3 0 -11 -7 -18z m307 11 c16 -16 15
-28 -3 -28 -14 0 -13 -3 2 -25 10 -13 25 -25 33 -26 8 0 -1 -5 -20 -10 -41
-10 -73 -3 -50 11 12 7 12 11 -1 26 -9 11 -9 15 -1 10 8 -5 12 2 12 23 0 33 8
39 28 19z m-527 -19 c12 11 27 17 35 14 17 -6 8 -25 -11 -21 -8 2 -13 -1 -12
-7 1 -5 5 -9 9 -8 3 1 9 -5 13 -15 3 -9 3 -13 -1 -10 -3 4 -13 0 -21 -8 -9 -8
-25 -12 -37 -9 -11 2 -15 2 -8 -1 18 -8 15 -21 -8 -27 -11 -3 -20 -1 -20 4 0
5 -5 9 -11 9 -5 0 -8 -4 -5 -8 2 -4 -11 -6 -30 -4 -36 4 -41 11 -22 30 7 7 8
12 4 12 -5 0 -3 7 4 15 7 8 21 15 32 15 17 0 18 -3 9 -14 -9 -10 -9 -16 -1
-21 16 -10 19 -4 22 39 3 36 3 37 20 16 l17 -21 22 20z m126 6 c0 -8 -6 -15
-14 -15 -17 0 -17 17 0 23 6 3 12 6 13 6 0 1 1 -6 1 -14z m324 -20 c12 4 15
-2 15 -26 -1 -40 -21 -48 -47 -21 -23 25 -27 51 -5 33 12 -10 14 -8 9 11 -3
16 -2 19 4 10 5 -7 16 -10 24 -7z m142 -28 c-3 -5 3 -7 12 -5 10 2 20 -4 22
-12 4 -12 3 -12 -5 -1 -7 9 -12 10 -16 2 -14 -22 -26 -10 -25 27 0 29 2 33 8
17 5 -11 6 -24 4 -28z m-443 -7 c0 -5 -10 -10 -22 -10 -19 0 -20 2 -8 10 19
13 30 13 30 0z m216 -3 c4 -4 -19 -6 -50 -6 -32 1 -52 5 -46 9 15 9 87 7 96
-3z m-615 -47 c10 0 18 -5 17 -11 -2 -6 3 -14 11 -17 8 -3 11 0 7 7 -4 6 0 11
9 11 14 0 16 -6 10 -27 -9 -36 -14 -41 -25 -23 -7 10 -10 11 -10 3 0 -8 -13
-13 -30 -13 -16 0 -30 -5 -30 -11 0 -5 5 -7 10 -4 6 3 10 1 10 -4 0 -6 10 -11
23 -11 16 0 18 -3 8 -9 -7 -5 -10 -14 -7 -20 4 -6 4 -11 -1 -12 -4 0 -18 -2
-30 -5 -22 -4 -23 -1 -23 77 0 70 2 80 16 75 9 -3 24 -6 35 -6z m86 -2 c0 -7
4 -21 8 -30 4 -11 0 -20 -14 -28 -14 -7 -21 -7 -21 0 0 5 4 10 10 10 5 0 7 7
4 15 -6 14 1 45 9 45 2 0 4 -6 4 -12z m948 2 c5 8 11 7 21 -1 11 -9 17 -9 29
1 12 10 15 9 15 -4 0 -13 4 -15 19 -7 17 10 19 7 17 -28 -1 -35 1 -38 18 -29
14 8 17 7 11 -3 -6 -9 -3 -11 8 -6 13 5 18 -2 23 -33 4 -22 13 -45 20 -51 8
-6 14 -24 14 -40 0 -28 1 -29 51 -29 47 0 51 -2 46 -21 -5 -17 -2 -20 14 -16
14 4 18 2 12 -6 -11 -15 10 -101 21 -90 5 4 6 1 4 -7 -3 -8 -11 -14 -18 -12
-11 3 -11 0 -1 -12 7 -9 11 -22 8 -30 -3 -8 -1 -16 4 -18 19 -6 -2 -36 -21
-31 -15 4 -18 1 -13 -16 3 -13 1 -21 -6 -21 -7 0 -9 -5 -5 -12 4 -7 3 -8 -5
-4 -9 6 -9 11 -1 21 8 9 8 14 0 17 -6 2 -11 24 -13 50 -1 26 -6 50 -10 54 -4
4 -2 13 4 20 15 18 -8 29 -28 12 -12 -9 -15 -9 -9 0 7 11 -12 18 -38 13 -5 -1
-6 5 -3 13 3 8 -5 26 -18 40 -13 14 -20 26 -15 26 6 0 10 4 10 10 0 5 -6 7
-14 4 -9 -4 -18 6 -27 30 -12 33 -26 41 -40 23 -3 -4 -11 4 -19 18 -7 14 -17
25 -22 25 -4 0 -8 11 -8 24 0 14 -5 28 -10 31 -6 4 -8 11 -5 16 4 5 -1 9 -11
9 -14 0 -14 -3 -4 -15 7 -9 10 -18 7 -22 -4 -3 -2 -12 4 -20 8 -9 8 -13 0 -13
-6 0 -17 16 -25 35 -8 19 -18 35 -21 35 -3 0 -3 -6 1 -12 5 -9 4 -10 -4 -3
-10 10 -15 41 -13 78 1 14 5 16 20 7 14 -7 22 -7 26 0z m-72 -44 c-4 -6 -8 -5
-11 2 -2 7 -11 12 -19 12 -10 0 -13 -6 -9 -16 3 -8 2 -12 -4 -9 -14 9 -12 33
3 38 17 5 47 -15 40 -27z m-883 -39 c0 -2 -10 -12 -22 -23 l-23 -19 19 23 c18
21 26 27 26 19z m-90 -164 c0 -8 5 -11 10 -8 6 3 10 2 10 -4 0 -5 -4 -11 -9
-13 -10 -3 -14 -76 -11 -213 1 -55 4 -74 10 -60 6 14 9 4 8 -35 0 -42 -2 -49
-8 -30 l-8 25 -1 -27 c-1 -16 4 -28 9 -28 15 0 7 -63 -10 -77 -12 -10 -11 -11
9 -6 21 5 22 3 16 -17 -6 -19 -4 -22 11 -16 16 6 16 5 -1 -15 -18 -19 -19 -34
-16 -162 4 -208 9 -259 23 -268 9 -6 9 -16 1 -44 -10 -30 -9 -34 2 -25 10 8
17 6 29 -12 20 -28 20 -38 1 -38 -18 0 -20 -17 -3 -22 9 -3 9 -6 0 -12 -8 -5
-14 3 -18 23 -4 17 -14 33 -25 36 -11 4 -19 11 -19 16 0 5 -5 9 -11 9 -19 0
-39 28 -39 54 0 14 -4 26 -10 26 -5 0 -10 7 -10 16 0 8 -4 13 -9 10 -11 -7
-23 22 -15 35 3 5 -2 12 -10 15 -13 5 -15 46 -16 302 0 164 -3 361 -6 440 -3
78 -3 142 1 142 4 0 18 -12 30 -26 21 -24 22 -24 36 -7 13 16 12 17 -3 4 -25
-19 -24 4 1 26 11 9 17 23 14 32 -4 9 3 6 15 -8 12 -13 22 -30 22 -38z m600
36 c0 -12 -7 -19 -20 -19 -17 0 -18 -4 -10 -25 9 -23 6 -29 -12 -26 -4 0 -5
-6 -2 -14 8 -21 -39 -20 -60 1 -15 14 -16 14 -16 0 0 -9 -7 -16 -16 -16 -8 0
-12 -4 -9 -10 3 -5 2 -10 -3 -10 -6 0 -13 8 -16 17 -4 10 -4 14 0 10 8 -8 54
31 54 46 0 5 -7 7 -15 3 -8 -3 -19 3 -25 13 -7 14 -6 20 5 24 9 4 12 1 9 -7
-5 -14 22 -26 44 -19 6 3 12 11 12 18 0 7 -6 16 -12 19 -7 3 -1 4 15 2 15 -2
27 0 27 4 0 4 11 8 25 8 18 0 25 -6 25 -19z m-670 -29 c0 -5 -2 -10 -4 -10 -3
0 -8 5 -11 10 -3 6 -1 10 4 10 6 0 11 -4 11 -10z m-139 -43 c-6 -15 -13 -27
-15 -27 -3 0 -3 7 0 15 4 9 0 15 -7 15 -10 1 -9 4 3 14 10 7 16 15 14 18 -1 3
1 2 6 -2 5 -4 4 -18 -1 -33z m832 9 c-3 -4 -9 -2 -14 5 -13 22 -11 31 5 17 8
-7 12 -17 9 -22z m-900 -16 c-3 -11 -9 -20 -13 -20 -5 0 -6 9 -3 20 3 11 9 20
13 20 5 0 6 -9 3 -20z m1196 -58 c1 11 7 15 21 11 11 -3 20 -1 20 4 0 5 6 10
13 10 8 0 13 -10 12 -21 -1 -12 2 -27 8 -34 6 -7 6 -12 1 -11 -29 5 -84 -2
-79 -11 4 -6 10 -8 15 -5 18 11 18 -13 0 -32 -10 -12 -16 -24 -12 -28 4 -4 0
-5 -8 -3 -8 2 -18 7 -21 11 -4 5 -11 -6 -18 -25 -10 -30 -9 -31 4 -14 16 21
19 18 9 -8 -3 -9 -12 -16 -20 -16 -8 0 -13 -3 -13 -7 3 -19 -2 -34 -9 -29 -4
2 -16 -2 -27 -10 -10 -8 -14 -14 -7 -14 7 0 9 -7 5 -17 -4 -10 -8 -12 -11 -5
-5 15 -72 -38 -72 -57 0 -25 -43 -56 -73 -53 -26 3 -34 -8 -28 -41 1 -4 -5
-18 -14 -30 -8 -12 -15 -17 -15 -11 0 6 -13 9 -30 6 -18 -2 -29 -9 -27 -16 3
-6 9 -10 14 -9 5 1 10 -5 10 -12 0 -10 -4 -11 -11 -6 -14 12 -51 -14 -41 -28
3 -6 15 -11 25 -11 10 0 22 -9 25 -20 3 -11 15 -25 26 -30 10 -6 37 -34 59
-61 22 -28 40 -47 40 -43 0 4 9 -4 21 -17 49 -58 68 -77 76 -80 4 -2 18 -17
31 -33 12 -16 22 -26 22 -22 0 3 18 -12 40 -34 22 -22 40 -44 40 -50 0 -5 6
-10 13 -10 14 0 67 -56 67 -71 0 -5 6 -9 13 -9 8 0 22 -9 32 -20 10 -11 26
-20 37 -20 10 0 18 -6 18 -13 0 -8 11 -19 25 -25 31 -14 46 -15 25 -2 -8 5
-10 10 -5 10 6 0 19 -6 30 -14 11 -7 29 -11 40 -9 11 2 39 7 63 10 40 5 42 4
42 -20 0 -31 -24 -57 -52 -57 -11 0 -31 -9 -45 -20 -28 -22 -59 -27 -47 -8 5
7 3 8 -5 4 -7 -5 -10 -14 -8 -20 11 -27 -7 -34 -62 -25 -29 4 -54 10 -55 11 0
2 -11 17 -24 35 -12 18 -22 40 -23 50 0 16 -1 16 -9 -2 -5 -12 -9 -14 -9 -6
-1 8 -4 11 -8 8 -3 -4 -12 1 -20 11 -9 10 -12 11 -7 2 4 -9 3 -12 -2 -7 -5 5
-9 14 -9 20 0 7 -2 12 -5 12 -3 0 -16 10 -30 23 -13 12 -27 22 -32 22 -4 0 -8
6 -8 13 0 7 -9 18 -20 25 -11 7 -20 19 -20 28 0 8 -4 13 -8 10 -4 -2 -18 11
-31 30 -13 18 -27 31 -31 29 -10 -6 -70 80 -70 99 0 17 -29 42 -57 50 -13 4
-23 14 -23 21 0 8 -9 19 -20 25 -11 6 -17 16 -14 25 4 8 1 15 -5 15 -6 0 -11
-5 -11 -11 0 -6 -7 -4 -15 5 -8 8 -15 21 -15 30 0 8 -5 18 -10 21 -6 4 -8 10
-5 15 8 13 -22 19 -34 7 -9 -9 -11 -7 -5 8 4 11 4 17 -1 13 -9 -8 -35 36 -35
59 0 9 -8 13 -22 12 -35 -5 -48 9 -48 51 0 21 -4 40 -9 42 -16 5 13 34 42 42
20 5 29 2 33 -9 3 -8 10 -13 14 -10 5 3 6 -4 3 -15 -4 -16 0 -20 22 -20 28 0
28 0 9 21 -19 22 -19 22 1 12 26 -13 45 -6 45 18 0 10 5 19 10 19 14 0 50 37
43 44 -4 3 -3 6 0 6 4 0 14 -15 22 -32 10 -22 12 -24 8 -8 -4 14 -7 36 -7 50
-1 22 3 25 42 28 42 3 42 3 42 43 0 37 1 39 33 39 17 0 28 4 22 8 -18 13 -15
32 5 32 11 0 20 7 20 15 0 8 5 15 11 15 5 0 8 4 5 9 -3 4 6 6 21 3 18 -3 24
-1 19 7 -11 18 5 13 21 -6 8 -10 12 -12 8 -6 -12 24 -14 53 -4 58 5 4 9 11 9
16 0 6 -5 7 -10 4 -6 -3 0 10 11 30 13 22 27 34 35 31 8 -3 14 2 15 12 1 9 5
4 9 -13 4 -16 8 -23 9 -13z m-1252 -4 c-3 -8 -6 -5 -6 6 -1 11 2 17 5 13 3 -3
4 -12 1 -19z m350 0 c-3 -8 -6 -5 -6 6 -1 11 2 17 5 13 3 -3 4 -12 1 -19z
m403 0 c0 -6 -3 -8 -7 -5 -3 4 -15 -1 -26 -10 -19 -17 -20 -17 -8 5 12 23 41
31 41 10z m40 -13 c0 -14 -5 -25 -12 -25 -6 0 -9 -3 -5 -6 3 -4 -4 -15 -16
-25 -12 -10 -18 -18 -13 -19 5 0 3 -7 -4 -15 -15 -18 -50 -20 -50 -2 1 17 26
48 33 40 7 -7 37 15 37 28 0 5 -7 5 -17 2 -11 -4 -14 -3 -9 5 4 7 14 12 22 12
8 0 14 7 14 15 0 8 5 15 10 15 6 0 10 -11 10 -25z m90 13 c0 -4 -4 -8 -9 -8
-6 0 -12 4 -15 8 -3 5 1 9 9 9 8 0 15 -4 15 -9z m-533 -100 c-2 -18 -4 -6 -4
27 0 33 2 48 4 33 2 -15 2 -42 0 -60z m313 28 c0 -2 -8 -10 -17 -17 -16 -13
-17 -12 -4 4 13 16 21 21 21 13z m1083 -56 c-7 -27 -13 -25 -11 4 1 14 5 23 9
20 4 -2 5 -13 2 -24z m-1741 -32 c-7 -7 -12 -8 -12 -2 0 14 12 26 19 19 2 -3
-1 -11 -7 -17z m632 10 c-5 -7 -3 -8 7 -3 7 5 22 10 33 10 16 2 17 0 4 -9 -8
-6 -13 -16 -11 -22 2 -7 -7 -14 -20 -18 -22 -5 -68 -56 -51 -56 4 0 1 -7 -6
-15 -7 -8 -23 -15 -36 -15 -20 0 -23 -5 -22 -40 0 -22 5 -43 12 -47 6 -3 8 -3
4 2 -4 4 -2 15 5 23 10 13 9 14 -2 7 -10 -5 -12 -4 -7 4 13 20 28 0 21 -28 -4
-14 -3 -23 1 -18 4 4 16 -1 26 -10 15 -13 23 -15 36 -7 14 9 17 7 19 -16 2
-24 -3 -29 -30 -34 -19 -4 -33 -2 -35 4 -2 5 -8 8 -13 5 -4 -3 -22 1 -39 10
-16 8 -30 12 -30 8 0 -5 -5 -1 -10 7 -7 12 -13 12 -27 4 -17 -10 -18 -6 -15
53 2 37 8 61 13 57 6 -3 16 -1 23 5 8 7 20 10 27 9 10 -2 15 10 17 40 3 42 3
42 43 42 31 0 39 4 39 18 0 10 5 23 12 30 15 15 21 15 12 0z m1089 -8 c3 -11
1 -20 -4 -20 -5 0 -9 9 -9 20 0 11 2 20 4 20 2 0 6 -9 9 -20z m-27 -17 c-10
-10 -19 5 -10 18 6 11 8 11 12 0 2 -7 1 -15 -2 -18z m34 -33 c-9 -6 -8 -10 5
-18 10 -5 15 -14 11 -21 -4 -6 -12 -9 -17 -6 -5 4 -9 2 -9 -3 0 -5 -9 -12 -21
-15 -18 -5 -20 -2 -15 21 3 15 3 21 0 15 -9 -22 -24 -14 -24 11 0 26 18 35 58
28 16 -3 20 -7 12 -12z m-1780 -52 c0 -6 -3 -8 -7 -5 -3 4 -12 2 -19 -4 -8 -7
-14 -6 -20 2 -4 7 -3 9 4 5 6 -3 13 -2 17 4 8 14 25 13 25 -2z m1820 -34 c0 9
4 16 9 16 5 0 7 -9 4 -20 -3 -11 -10 -20 -15 -20 -6 0 -8 -6 -5 -14 3 -8 1
-17 -6 -20 -7 -2 -4 -5 7 -5 13 -1 17 -6 13 -21 -3 -11 -2 -20 3 -20 4 0 10
-9 13 -20 4 -16 0 -20 -20 -20 -18 0 -24 -4 -20 -14 4 -10 1 -13 -7 -10 -15 6
-18 91 -4 118 8 15 7 18 -4 13 -10 -3 -14 1 -12 16 1 12 3 29 3 37 1 11 7 9
21 -9 15 -18 20 -19 20 -7z m-1857 -106 c2 -18 0 -35 -5 -37 -5 -1 -1 -9 9
-16 14 -10 15 -16 6 -25 -20 -21 -33 0 -33 56 0 59 15 73 23 22z m1067 2 c0
-5 -2 -10 -4 -10 -3 0 -8 5 -11 10 -3 6 -1 10 4 10 6 0 11 -4 11 -10z m-1051
-107 c-4 -23 3 -35 16 -29 12 4 14 0 10 -17 -7 -32 9 -122 22 -120 13 3 36
-94 27 -109 -4 -6 -2 -8 3 -5 6 4 13 -3 16 -15 4 -15 3 -18 -5 -10 -7 7 -17 8
-29 2 -23 -13 -35 5 -19 25 7 8 9 15 5 15 -4 0 -2 7 5 15 7 9 9 19 5 23 -4 4
-10 1 -12 -6 -4 -10 -8 -10 -18 -2 -8 6 -11 18 -8 26 3 8 0 14 -6 14 -6 0 -9
13 -7 29 2 19 -2 32 -11 35 -9 4 -11 2 -7 -7 5 -8 2 -7 -9 2 -18 15 -23 26 -7
16 6 -3 10 -1 10 4 0 6 -4 11 -10 11 -12 0 -9 22 5 32 6 5 5 8 -2 8 -7 0 -13
12 -13 26 0 19 4 25 14 21 10 -4 13 -1 9 9 -3 7 0 14 6 14 6 0 10 -3 10 -7z
m1872 -18 c2 2 5 -12 5 -31 1 -19 -2 -34 -7 -34 -4 0 -15 -7 -23 -16 -10 -10
-16 -11 -16 -3 0 8 -5 8 -17 -2 -15 -12 -16 -12 -10 5 6 15 4 17 -13 13 -11
-3 -20 0 -20 6 0 7 -4 6 -10 -3 -5 -8 -12 -11 -16 -8 -4 4 7 15 25 25 17 10
31 26 31 36 0 10 5 15 10 12 6 -3 10 -2 10 4 0 7 8 7 24 1 13 -5 26 -7 27 -5z
m-16 -105 c-3 -5 -12 -10 -18 -10 -7 0 -6 4 3 10 19 12 23 12 15 0z m-1808
-22 c-3 -8 -6 -5 -6 6 -1 11 2 17 5 13 3 -3 4 -12 1 -19z m1732 -29 c-24 -15
-45 -11 -24 5 11 8 24 12 28 9 5 -3 3 -9 -4 -14z m-1775 -40 c-8 -14 -21 -11
-21 5 0 8 6 12 14 9 7 -3 10 -9 7 -14z m1783 -22 c-6 -19 -23 -18 -23 2 0 11
5 17 14 14 7 -3 11 -10 9 -16z m-1767 -13 c0 -2 -7 -4 -15 -4 -8 0 -15 4 -15
10 0 5 7 7 15 4 8 -4 15 -8 15 -10z m1717 -3 c0 -11 -5 -18 -9 -15 -4 3 -5 11
-1 19 7 21 12 19 10 -4z m-669 -56 c-3 -3 -9 2 -12 12 -6 14 -5 15 5 6 7 -7
10 -15 7 -18z m593 2 c-10 -9 -11 -8 -5 6 3 10 9 15 12 12 3 -3 0 -11 -7 -18z
m-1568 -24 c9 3 20 -4 28 -21 8 -15 22 -36 32 -47 9 -10 16 -24 14 -30 -2 -5
5 -18 15 -27 11 -9 19 -20 19 -25 -1 -4 4 -8 11 -8 7 0 26 -19 43 -42 16 -23
40 -45 53 -49 12 -3 22 -10 22 -15 0 -5 14 -16 30 -24 17 -9 28 -20 25 -26 -4
-5 -3 -8 2 -7 14 3 53 -13 54 -23 1 -5 2 -19 3 -31 1 -19 8 -21 60 -24 76 -4
212 -44 194 -56 -8 -5 1 -6 23 -3 28 5 38 3 42 -9 5 -13 27 -15 126 -15 66 1
125 -2 132 -7 8 -4 10 -3 5 4 -4 7 3 10 21 8 17 -2 34 3 43 12 13 14 12 15 -3
9 -9 -3 -17 -2 -17 3 0 6 8 10 18 11 9 1 29 2 44 3 15 0 33 7 40 14 6 6 17 12
23 12 5 0 3 -5 -5 -10 -13 -9 -13 -10 0 -10 9 0 21 5 28 12 9 9 12 9 12 -3 0
-8 3 -10 8 -4 11 15 53 37 60 31 3 -3 -1 -6 -8 -6 -8 0 1 -14 20 -31 19 -17
26 -25 16 -18 -18 13 -18 12 -9 -6 10 -18 8 -20 -30 -23 -23 -1 -44 -6 -47
-11 -3 -4 -13 -10 -22 -14 -11 -4 -15 -12 -12 -22 3 -8 1 -15 -6 -15 -6 0 -8
5 -5 10 12 20 -21 10 -40 -12 -12 -15 -20 -18 -23 -10 -2 7 -10 12 -18 12 -9
0 -13 -4 -10 -8 3 -5 -9 -9 -27 -10 -18 -1 -54 -6 -82 -11 -30 -6 -56 -6 -67
0 -22 12 -31 11 -23 -1 3 -5 1 -10 -4 -10 -6 0 -11 6 -11 13 0 7 -3 8 -8 2 -9
-13 -32 -18 -32 -7 0 4 -19 9 -42 11 -23 1 -45 6 -48 12 -4 5 -21 11 -38 12
-24 1 -32 7 -32 22 0 16 -2 17 -9 6 -5 -8 -7 -20 -4 -27 3 -8 -2 -11 -16 -7
-11 3 -18 10 -14 16 4 6 -2 8 -16 4 -27 -7 -53 1 -45 14 3 5 10 6 16 3 6 -4 8
-2 5 3 -10 15 -57 23 -57 9 -1 -6 -9 -1 -19 11 -13 16 -26 21 -46 17 -19 -3
-24 -1 -19 7 4 7 3 9 -3 6 -6 -4 -24 0 -39 8 -25 13 -26 20 -1 16 4 0 7 5 7
13 0 8 -9 14 -19 13 -11 0 -17 -5 -14 -10 3 -5 0 -8 -7 -5 -8 2 -18 13 -24 24
-15 27 -28 35 -48 30 -10 -2 -21 1 -25 6 -3 7 -1 8 5 4 7 -4 12 -5 12 -1 0 3
-12 10 -27 16 -16 7 -23 13 -15 16 22 8 13 25 -11 19 -17 -4 -29 1 -44 17 -10
13 -18 28 -16 33 2 6 -4 17 -14 25 -11 9 -14 10 -9 2 12 -20 -1 -15 -24 9 -14
15 -19 31 -15 45 3 15 -1 26 -17 37 -12 9 -17 16 -10 16 6 0 12 12 12 26 0 14
-4 23 -10 19 -5 -3 -10 0 -11 7 0 10 -2 10 -6 1 -8 -22 -32 -14 -48 17 -19 37
-19 50 0 50 8 0 15 6 15 13 0 8 3 8 9 -2 5 -8 16 -11 24 -8z m320 -136 c-5 -8
-8 -7 -11 1 -2 7 -8 10 -13 7 -5 -4 -6 1 -3 10 5 12 10 13 20 4 8 -6 11 -16 7
-22z m1343 -73 c-22 -16 -36 -18 -36 -6 0 11 43 32 50 25 3 -3 -4 -11 -14 -19z
m-76 -128 c0 -2 -12 -11 -27 -20 l-28 -17 24 20 c23 21 31 25 31 17z m-1190
-42 c0 -2 -7 -4 -15 -4 -8 0 -15 4 -15 10 0 5 7 7 15 4 8 -4 15 -8 15 -10z
m810 -121 c-8 -3 -30 -12 -47 -19 -18 -7 -33 -11 -33 -9 0 9 56 34 75 34 14 0
16 -2 5 -6z"/>
<path d="M2196 5808 c3 -5 10 -6 15 -3 13 9 11 12 -6 12 -8 0 -12 -4 -9 -9z"/>
<path d="M2657 5806 c-3 -8 -2 -18 4 -22 16 -9 22 2 11 21 -8 15 -10 16 -15 1z"/>
<path d="M3085 5589 c-11 -17 1 -21 15 -4 8 9 8 15 2 15 -6 0 -14 -5 -17 -11z"/>
<path d="M3220 5431 c0 -11 26 -22 34 -14 3 3 3 10 0 14 -7 12 -34 11 -34 0z"/>
<path d="M3301 5394 c0 -11 3 -14 6 -6 3 7 2 16 -1 19 -3 4 -6 -2 -5 -13z"/>
<path d="M1857 5469 c7 -7 15 -10 18 -7 3 3 -2 9 -12 12 -14 6 -15 5 -6 -5z"/>
<path d="M2465 5491 c-3 -5 -1 -12 5 -16 5 -3 10 1 10 9 0 18 -6 21 -15 7z"/>
<path d="M2365 5000 c-3 -5 -1 -10 4 -10 6 0 11 5 11 10 0 6 -2 10 -4 10 -3 0
-8 -4 -11 -10z"/>
<path d="M2468 4953 c6 -2 12 -11 12 -19 0 -9 4 -13 10 -9 14 9 0 35 -19 34
-10 0 -11 -2 -3 -6z"/>
<path d="M3017 4199 c7 -7 15 -10 18 -7 3 3 -2 9 -12 12 -14 6 -15 5 -6 -5z"/>
<path d="M1606 4537 c3 -10 9 -15 12 -12 3 3 0 11 -7 18 -10 9 -11 8 -5 -6z"/>
<path d="M4670 5552 c-12 -4 -95 -127 -199 -294 -40 -65 -77 -118 -82 -118 -5
0 -10 91 -11 203 l-3 202 -94 3 c-69 2 -97 -1 -103 -10 -4 -7 -8 -238 -8 -514
0 -385 3 -504 13 -517 16 -21 157 -28 181 -8 14 11 16 41 16 191 0 167 1 179
23 210 12 19 27 35 32 37 6 2 69 -96 140 -218 71 -121 133 -223 139 -226 5 -4
52 -8 105 -11 74 -3 100 0 115 11 19 14 17 19 -54 133 -41 66 -121 191 -178
279 -58 88 -105 165 -105 170 0 6 57 94 126 196 143 211 166 254 149 271 -10
10 -176 18 -202 10z m-330 -42 c19 -19 20 -31 18 -210 -2 -120 1 -191 7 -194
12 -4 77 29 70 36 -5 5 50 96 84 139 11 15 32 49 46 76 13 27 35 61 49 74 14
14 28 37 31 52 9 35 8 34 88 41 45 4 67 3 67 -5 0 -11 25 -40 31 -36 2 1 -4
-5 -15 -14 -12 -10 -16 -21 -11 -29 5 -8 4 -11 -3 -6 -6 3 -13 2 -17 -4 -3 -5
-1 -10 5 -10 6 0 2 -13 -10 -30 -12 -16 -27 -30 -35 -30 -7 0 -12 -8 -11 -17
0 -10 -4 -17 -11 -16 -6 1 -19 -17 -28 -42 -10 -24 -26 -52 -36 -61 -10 -9
-16 -21 -12 -27 4 -6 0 -8 -11 -4 -10 4 -15 3 -11 -3 4 -6 -4 -27 -16 -48 -30
-49 -29 -48 -39 -32 -7 11 -10 7 -10 -16 0 -21 11 -43 35 -70 19 -21 35 -44
35 -50 0 -6 7 -17 15 -24 14 -12 47 -74 59 -113 3 -10 10 -15 16 -12 5 3 10 3
10 -2 0 -9 138 -224 170 -265 25 -32 20 -49 -12 -40 -14 3 -19 2 -14 -6 10
-16 -7 -15 -23 1 -11 10 -13 10 -7 0 4 -7 2 -13 -3 -13 -6 0 -11 5 -11 12 0 9
-3 9 -12 0 -19 -19 -76 -15 -95 7 -20 24 -44 92 -38 108 2 7 -2 10 -11 6 -9
-3 -19 7 -30 32 -8 21 -29 51 -44 67 -16 16 -32 44 -36 63 -3 18 -12 36 -20
39 -8 3 -14 11 -14 17 0 8 4 8 15 -1 13 -11 14 -10 9 4 -4 11 -13 15 -25 11
-14 -5 -19 -1 -19 14 0 12 -4 21 -10 21 -5 0 -13 14 -18 32 -14 55 -33 56 -80
7 -23 -24 -42 -50 -42 -56 0 -7 -5 -13 -10 -13 -7 0 -7 -7 0 -20 6 -11 7 -26
3 -33 -11 -18 -13 -38 -2 -31 10 6 12 -180 3 -238 -6 -32 -10 -37 -33 -36 -14
0 -45 -2 -67 -6 -26 -5 -44 -3 -48 3 -4 6 -7 212 -7 458 -2 598 -4 551 24 556
57 11 97 7 117 -13z"/>
<path d="M6019 5548 c-18 -7 -19 -23 -19 -516 0 -391 3 -512 13 -525 10 -14
47 -17 266 -22 313 -7 301 -11 301 105 0 112 4 110 -196 110 l-164 0 0 413 c0
226 -4 417 -8 424 -8 13 -163 22 -193 11z m156 -28 l26 -10 -1 -402 c-1 -222
-1 -411 -1 -420 1 -10 9 -18 19 -19 10 0 12 -3 4 -6 -6 -2 -10 -9 -7 -13 3 -5
12 -7 20 -4 8 4 13 9 11 13 -3 3 13 6 35 6 28 0 39 -4 39 -15 0 -12 2 -12 9
-2 11 18 171 33 171 17 0 -7 7 -12 15 -12 8 0 15 4 15 9 0 13 17 9 18 -4 10
-74 11 -98 3 -102 -5 -4 -7 -15 -4 -26 6 -24 -25 -40 -38 -19 -5 8 -9 9 -9 3
0 -7 -28 -9 -82 -7 -46 2 -145 4 -220 6 -130 3 -138 4 -157 26 -21 24 -21 34
-21 502 l0 478 33 4 c63 8 96 7 122 -3z"/>
<path d="M7418 5552 c-49 -2 -80 -8 -88 -17 -8 -10 -10 -124 -8 -413 l3 -399
35 -69 c41 -79 101 -131 183 -157 238 -74 470 26 523 228 20 75 20 798 0 814
-9 8 -46 11 -103 9 l-88 -3 -5 -380 c-5 -360 -6 -382 -26 -415 -30 -52 -78
-80 -136 -80 -61 0 -117 28 -143 72 -19 31 -20 56 -25 417 -6 442 8 398 -122
393z m94 -46 c4 -6 7 -164 7 -352 0 -359 4 -405 44 -450 48 -56 165 -81 226
-50 56 29 101 113 101 188 0 22 3 37 8 35 4 -3 6 115 6 261 -1 165 2 272 8
279 7 9 6 15 -6 19 -16 6 -19 63 -2 62 5 0 12 5 15 10 6 10 52 16 109 13 l32
-1 0 -373 c0 -309 -3 -382 -15 -423 -18 -56 -71 -134 -103 -150 -12 -6 -30
-18 -40 -27 -35 -32 -104 -48 -202 -49 -60 0 -96 4 -98 11 -2 6 -8 9 -13 6 -5
-4 -17 -1 -26 4 -17 10 -16 11 2 12 13 1 10 4 -10 8 -16 4 -33 3 -36 -2 -9
-12 -57 22 -99 70 -64 72 -64 70 -65 483 0 206 1 387 3 402 3 15 12 29 21 31
27 7 126 -5 133 -17z"/>
<path d="M5050 5529 c-8 -14 -10 -139 -8 -412 l3 -392 33 -67 c39 -79 92 -128
171 -160 47 -19 76 -22 171 -22 108 0 119 2 182 31 118 55 176 133 197 263 16
98 14 741 -2 763 -10 15 -27 17 -112 15 l-100 -3 -5 -385 c-5 -362 -6 -387
-25 -419 -30 -51 -78 -73 -148 -68 -48 3 -62 8 -91 36 -18 18 -38 49 -45 70
-7 26 -11 155 -11 389 0 193 -3 357 -6 366 -5 13 -24 16 -100 16 -84 0 -94 -2
-104 -21z m161 -15 c6 -8 15 -12 19 -9 5 3 9 -47 9 -110 0 -67 -4 -115 -10
-115 -6 0 -6 -7 -1 -17 14 -28 13 -214 -1 -232 -9 -11 -9 -13 0 -8 8 5 12 -21
12 -103 1 -165 13 -200 87 -249 40 -26 57 -31 110 -31 61 0 64 1 107 46 27 27
47 59 51 78 3 17 7 194 8 393 l2 363 34 6 c36 7 129 1 139 -9 3 -4 5 -176 5
-384 -1 -315 -3 -385 -16 -421 -28 -79 -91 -151 -132 -152 -12 0 -27 -7 -34
-15 -7 -9 -19 -14 -27 -11 -7 3 -13 1 -13 -4 0 -20 -48 -33 -134 -34 -96 -2
-172 16 -159 38 4 6 -1 5 -10 -2 -14 -12 -22 -9 -61 17 -56 39 -89 80 -83 103
3 10 1 16 -3 13 -8 -5 -21 20 -19 39 0 5 -5 12 -12 17 -10 6 -13 91 -14 393
-1 213 1 390 4 395 13 20 126 24 142 5z"/>
<path d="M6502 5538 c-7 -7 -12 -42 -12 -88 0 -106 5 -110 148 -110 l112 0 0
-414 c0 -372 2 -415 17 -427 10 -9 43 -14 95 -14 67 0 82 3 94 19 12 16 14 91
14 428 l0 408 104 0 c132 0 136 3 136 109 0 46 -5 82 -12 89 -9 9 -100 12
-348 12 -248 0 -339 -3 -348 -12z m682 -45 c3 -16 2 -50 -3 -78 -5 -27 -9 -43
-10 -35 -1 11 -3 12 -9 3 -6 -9 -40 -13 -106 -14 -71 -1 -99 -5 -103 -15 -3
-7 -6 -198 -6 -424 -2 -353 -4 -412 -17 -420 -15 -10 -138 -5 -149 5 -3 4 1
10 8 14 10 6 11 17 6 37 -7 29 -17 106 -17 134 0 80 7 172 14 176 11 7 10 84
-1 84 -6 0 -9 79 -9 195 1 107 -2 198 -6 202 -4 4 -42 7 -84 6 -104 -2 -132 4
-132 28 0 13 -4 17 -11 13 -8 -5 -9 -2 -1 11 7 14 6 22 -3 32 -17 16 -29 17
-19 1 4 -7 3 -8 -4 -4 -13 8 -16 35 -6 60 5 13 49 15 334 16 l328 0 6 -27z
m-657 -105 c-3 -8 -6 -5 -6 6 -1 11 2 17 5 13 3 -3 4 -12 1 -19z"/>
<path d="M8262 5538 c-18 -18 -17 -1007 1 -1032 10 -14 28 -17 91 -17 44 0 84
5 92 12 11 9 14 50 14 195 l0 184 53 0 c39 0 58 -5 70 -17 8 -10 48 -85 88
-168 106 -218 93 -205 199 -205 134 0 139 6 92 93 -180 327 -176 319 -156 330
11 5 42 33 70 61 67 69 100 163 91 265 -13 162 -101 264 -253 296 -89 19 -434
21 -452 3z m451 -29 c40 -7 72 -17 80 -27 6 -10 18 -18 25 -20 23 -4 62 -34
62 -46 0 -7 11 -27 25 -45 35 -49 50 -130 37 -210 -12 -71 -52 -158 -71 -153
-7 1 -10 -1 -7 -6 6 -11 -27 -42 -71 -68 -18 -10 -33 -22 -33 -26 0 -4 10 -24
22 -45 12 -21 45 -81 73 -133 28 -52 64 -117 79 -145 14 -27 25 -56 24 -64 -4
-17 -69 -23 -80 -7 -6 8 -8 8 -8 0 0 -7 -13 -9 -37 -5 -32 5 -37 10 -35 28 2
14 -4 23 -17 28 -12 3 -24 18 -27 33 -4 15 -13 32 -21 39 -9 7 -16 25 -17 42
-1 16 -5 33 -10 38 -5 5 -6 0 -3 -10 4 -10 3 -16 -2 -13 -4 3 -14 26 -21 52
-7 25 -19 48 -27 51 -7 3 -13 9 -13 15 0 17 -49 81 -76 99 -19 12 -33 15 -44
9 -10 -5 -20 -6 -24 -3 -3 3 -6 1 -6 -6 0 -9 -4 -9 -14 1 -9 9 -11 17 -4 25 6
8 3 15 -11 22 -27 15 -27 15 -29 -21 0 -18 -1 -40 -1 -48 -1 -8 1 -89 3 -180
3 -91 1 -172 -4 -180 -12 -20 -127 -30 -142 -13 -8 10 -7 13 4 13 8 0 15 7 15
15 0 8 -8 15 -18 15 -14 0 -17 7 -14 38 5 50 6 636 1 784 -4 125 -1 133 44
140 50 6 327 -2 393 -13z"/>
<path d="M8439 5384 c-1 -5 -2 -96 -3 -201 l-1 -193 24 0 c24 0 24 0 5 15 -17
13 -10 15 72 14 50 -1 100 4 110 9 10 6 31 13 47 17 15 3 27 11 27 19 0 7 6
19 14 25 8 7 18 27 21 44 4 18 12 47 18 65 11 30 8 40 -22 97 -27 51 -40 65
-70 75 -44 14 -241 26 -242 14z m248 -50 c15 -11 36 -38 46 -58 33 -69 1 -168
-65 -202 -34 -18 -169 -37 -193 -27 -12 4 -15 33 -15 160 l0 155 99 -4 c82 -2
105 -7 128 -24z"/>
</g>
</svg>
